<svg xmlns="http://www.w3.org/2000/svg" width="65" height="45" fill="none"><g fill="#060606" clip-path="url(#a)" opacity=".1"><path d="M50.8 45C58.6 45 65 38.7 65 30.9c0-7.5-5.9-13.8-13.4-14.2-.1-1.4 0-5.2 3.6-10.4.3-.4.2-.9-.1-1.3-1.5-1.5-2.4-2.4-3-3.1C51.3 1 50.9.7 50.3.2c-.4-.3-.9-.3-1.3 0C40.4 8 35.9 19.3 36.7 30.9c.5 8.2 6.5 14.1 14.1 14.1M.1 30.9C.7 39.1 6.7 45 14.3 45c7.8 0 14.2-6.3 14.2-14.1 0-7.5-5.9-13.8-13.4-14.2-.1-1.4 0-5.2 3.6-10.4.3-.4.2-.9-.1-1.3-1.5-1.5-2.4-2.4-3-3.1C14.8 1 14.4.7 13.8.1c-.2 0-.5-.1-.7-.1s-.5.1-.7.2C3.8 8.1-.7 19.4.1 30.9"/></g><defs><clipPath id="a"><path fill="#fff" d="M0 0h65v45H0z"/></clipPath></defs></svg>