<svg xmlns="http://www.w3.org/2000/svg" width="30" height="30" fill="none"><path fill="#FFDE00" d="M12.224 20.859h-1.238c-.667 0-1.333-.386-1.81-.964L8.7 19.22l.762-.482.476.675c.19.385.572.578.953.578h1.428l1.524-.29c.095 0 .19-.096.19-.288v-2.217h.953v2.217c0 .578-.381 1.06-.953 1.253l-1.428.192zM12.51 25.1h-1.524c-.667 0-1.333-.385-1.81-.964l-.476-.674.762-.482.476.674c.19.386.572.579.953.579h1.524c.19 0 .38 0 .57-.097l1.049-.578c.095-.096.19-.193.19-.29v-1.927h.952v1.928c0 .482-.285.867-.666 1.06l-1.048.578c-.38.193-.667.193-.952.193"/><path fill="#FFDE00" d="M18.414 20.86h-1.6179999999999999l-1.524-.29c-.572-.096-.953-.578-.953-1.253V17.1h.952v2.217c0 .096.096.29.19.29l1.525.288h1.428c.381 0 .762-.192.953-.578l.476-.675.762.482-.381.771c-.476.675-1.048.964-1.81.964M18.414 25.1H16.89c-.285 0-.666-.096-.952-.193l-1.048-.578c-.38-.193-.666-.675-.666-1.06V21.34h.952v1.928c0 .096.095.193.19.289l1.048.578c.19.097.381.097.571.097h1.524c.381 0 .762-.193.953-.579l.476-.674.762.482-.476.674c-.477.675-1.048.964-1.81.964"/><path fill="#060606" d="m4.1 10.1-.2 1.5c-.3 1.8-1.1 3-2.6 3.6l-.4.2.1.3c.3 1.5 0 3-.9 4.6l.8.5c1-1.6 1.3-3.2 1.1-4.9 1.2-.6 2-1.5 2.5-2.8l1.8 3.7.5 2.8-.5 7.2-.9 2.9.9.3 1-2.9.5-7.5-.5-3zM3.7.8 3.1 0C1.3 1.4.3 3.6 0 6.7l1 .1C1.2 3.9 2.1 2 3.7.8M29 15.7l.1-.4-.4-.2c-1.5-.6-2.3-1.8-2.6-3.6l-.2-1.5-3.1 6.3-.5 3.1.5 7.4 1 3.1.9-.3-.9-2.9-.5-7.2.5-2.8 1.8-3.7c.5 1.3 1.3 2.3 2.5 2.8-.2 1.6.1 3.3 1.1 4.9l.8-.5c-1-1.5-1.3-3-1-4.5M29 6.8l1-.1c-.3-3.2-1.3-5.4-3.1-6.7l-.6.8c1.6 1.2 2.5 3.1 2.7 6M24.7 9.4l-.9-.3c-.4 1.5-1.2 3.7-1.8 4.1-.9.7-2.4 1-3.5.9-.6-.1-1.6-.5-2.7-1.1-.1-.1-.2-.2-.2-.4v-1.9h-1v1.9c0 .2-.1.3-.2.4-1.1.6-2.1 1.1-2.7 1.1-1.1.1-2.7-.2-3.5-.9-.6-.4-1.4-2.7-1.8-4.1l-1.1.3c.2.6 1.1 3.8 2.2 4.6.9.7 2.3 1.1 3.6 1.1h.6c.9-.1 2.2-.7 3.1-1.3.1 0 .2-.1.2-.2l.2.2c.9.5 2.2 1.1 3.1 1.3h.6c1.3 0 2.7-.4 3.6-1.1 1.1-.8 2-4 2.2-4.6M4.2 8.1c.6-.7.9-1.6 1-2 2.1-1.2 2.9-3.5 2.9-3.6l-.8-.3s-.8 2.2-2.7 3.2l-.2.1v.2s-.2 1-.9 1.7zM13.6 2.8c-1.7-.1-3.2-.9-3.2-.9l-.5.9c.1 0 1.7 1 3.6 1zM24.8 6.1c.1.4.4 1.3 1 2l.7-.6c-.6-.7-.9-1.7-.9-1.7l-.1-.2-.2-.1c-1.9-1-2.7-3.1-2.7-3.2l-.9.3c.1 0 1 2.3 3.1 3.5M20.1 2.8l-.5-.9s-1.5.8-3.2.9v1c2-.1 3.6-1 3.7-1"/><path fill="#060606" d="M15.5 8.7h-1v1h1zM21.3 27.9l-.3-.4s-1.2.9-1.6 2.2l.9.3c.3-1 1.3-1.7 1.3-1.7zM9 27.5l-.6.8s.9.7 1.3 1.7l.9-.3c-.4-1.4-1.6-2.2-1.6-2.2"/></svg>