<svg xmlns="http://www.w3.org/2000/svg" width="27" height="30" fill="none"><path fill="#FFDE00" d="M12.825 26.6c5.137 0 9.3-4.119 9.3-9.2s-4.163-9.2-9.3-9.2c-5.136 0-9.3 4.119-9.3 9.2s4.164 9.2 9.3 9.2"/><path fill="#060606" d="M6.425 15.5c-.8 0-1.5.7-1.5 1.5v1.5c0 .8.7 1.5 1.5 1.5s1.5-.7 1.5-1.5V17c-.1-.9-.7-1.5-1.5-1.5m.5 2.9c0 .3-.2.5-.5.5s-.5-.2-.5-.5v-1.5c0-.3.2-.5.5-.5s.5.2.5.5zM9.825 15.5c-.8 0-1.5.7-1.5 1.5v1.5c0 .8.7 1.5 1.5 1.5s1.5-.7 1.5-1.5V17c0-.9-.7-1.5-1.5-1.5m.5 2.9c0 .3-.2.5-.5.5s-.5-.2-.5-.5v-1.5c0-.3.2-.5.5-.5s.5.2.5.5zM14.725 16.5h.5v3.3h1v-4.3h-1.5zM18.625 16.9h-.5v-.5h1.5v-1h-2.5v2.4h1.5c.3 0 .5.2.5.5s-.2.5-.5.5h-.5c-.3 0-.5-.2-.5-.5h-1c0 .8.7 1.5 1.5 1.5h.5c.8 0 1.5-.7 1.5-1.5 0-.7-.6-1.4-1.5-1.4M13.325 16h-1v1h1zM13.325 18.4h-1v1h1z"/><path fill="#060606" d="M23.125 9.4c.3.2.7.3 1 .3 1 0 1.9-.8 1.9-1.9 0-.5-.2-1-.6-1.3l-2.6-2.6c-.4-.3-.8-.5-1.3-.5-1 0-1.9.8-1.9 1.9 0 .4.1.7.3 1l-.5.5c-1.3-.8-2.7-1.4-4.3-1.7v-.7h.1c1.2 0 2.2-.9 2.3-2.1 0-.6-.2-1.2-.6-1.6s-1-.7-1.6-.7h-5.3c-1.1 0-2.1.9-2.1 2.1 0 .6.2 1.2.6 1.6s1 .7 1.6.7h.2v.7c-6.3 1.2-10.7 6.7-10.3 13.1.4 6.5 5.9 11.7 12.5 11.8h.2c3.4 0 6.5-1.3 8.9-3.6 2.5-2.4 3.8-5.6 3.8-9 0-2.8-1-5.5-2.7-7.8zm1.4 8c0 3.1-1.3 6.1-3.5 8.3-2.3 2.2-5.3 3.4-8.5 3.3-6.1-.1-11.1-4.9-11.5-10.9s3.9-11.2 9.9-12.1l.4-.1V4.4h2v-1h-3.2c-.4 0-.7-.1-.9-.4-.3-.2-.4-.6-.4-.9.1-.6.7-1.1 1.4-1.1h5.3c.3 0 .7.1.9.4.2.2.4.6.3.9 0 .6-.6 1.1-1.3 1.1h-1.1v2.5l.3.1c1.7.3 3.2.9 4.6 1.8l.4.2 1-1 .6.6.7-.7-1-1-.1-.1q-.3-.3-.3-.6c0-.5.4-.9.9-.9.2 0 .5.1.6.3l2.6 2.6c.3.2.4.4.4.6 0 .5-.4.9-.9.9-.2 0-.5-.1-.6-.3l-.4-.4-1.6 1.6.3.3c1.7 2.1 2.7 4.8 2.7 7.5"/><path fill="#060606" d="M13.325 10.2h-1v1h1zM15.225 10.2h-1v1h1zM11.325 10.2h-1v1h1zM13.325 23.7h-1v1h1zM15.225 23.7h-1v1h1zM11.325 23.7h-1v1h1z"/></svg>