<svg xmlns="http://www.w3.org/2000/svg" width="30" height="30" fill="none"><path fill="#FFDE00" d="M19.4 14.5c0-1.8.1-3.6.4-5.4l.5-3.2-2.4-.5-.1.5c-.2 1.4-1.4 2.4-2.8 2.4s-2.6-1-2.8-2.4l-.1-.5-2.4.5.5 3.2c.3 1.8.4 3.6.4 5.4 0 1.3-.7 2.6-1.9 3.2l1 6.9v.4s2.3-.5 5.3-.5 5.3.5 5.3.5v-.5l1-6.9c-1.2-.5-1.9-1.8-1.9-3.1"/><path fill="#060606" d="M30 3.4v-1h-3.3l-.1.5h-8.2v-.4c1-.4 1.9-1.1 2.3-1.8l.1-.1V0h-1v.3c-.5.7-1.4 1.1-2.1 1.4l-.3.1v1.1h-4.8v-1l-.3-.1c-.7-.3-1.6-.7-2.1-1.4V0h-1v.6l.1.1c.5.7 1.3 1.3 2.3 1.8v.4H3.4l-.1-.4H0v1h2.5l.4 1.9-1 1.8v1.7l3.6 8 1.2-8.8 2.6-1.3.4 2.3c.3 1.7.4 3.5.4 5.3 0 .9-.4 1.8-1.1 2.3l-.1-1-2 4.7H4.2L.9 14l-.9.4 3.5 7.1h4l.9-2.1.7 5.1-.5 5.3 1 .1.4-4.5c.7-.1 2.6-.4 4.9-.4s4.2.3 4.9.4l.4 4.5 1-.1-.5-5.3.7-5.1.9 2.1h4l3.5-7.1-.7-.4-3.3 6.6H23l-2-4.7-.1 1c-.7-.6-1.1-1.4-1.1-2.3 0-1.8.1-3.6.4-5.3l.4-2.3 2.6 1.3 1.2 8.8 3.6-8V7.2l-.9-1.9.4-1.9zm-23.7.5v.5h1v-.5h15.5v.5h1v-.5h2.7l-.2 1H3.8l-.2-1zm11 2c-.2 1.1-1.2 2-2.3 2s-2.1-.8-2.3-2zM5.8 7.5 5 13.4 2.9 8.7V7.5l.8-1.6h5.4zm15 10.4-.9 6.5c-.9-.1-2.7-.4-4.8-.4s-4 .2-4.8.4l-.9-6.5c1.2-.7 1.9-2 1.9-3.4 0-1.8-.2-3.7-.4-5.5l-.4-2.6 1-.5h.4V6c.1 1.6 1.5 2.8 3.1 2.8s3-1.2 3.3-2.8v-.1h.4l1 .5-.4 2.6c-.3 1.8-.4 3.6-.4 5.5 0 1.4.7 2.7 1.9 3.4m6.3-9.2-2.2 4.8-.8-5.9L20.9 6h5.4l.8 1.6z"/></svg>