<svg xmlns="http://www.w3.org/2000/svg" width="30" height="25" fill="none"><path fill="#FFDE00" d="m28.007 3.556-.5-.48C24.705.297 20.203.2 17.301 2.886L15 4.995l-2.301-2.206C9.797.103 5.295.199 2.493 2.98l-.5.575c-2.802 2.686-2.602 7.098.3 9.783l2.701 2.398h3.502L12.198 5.57c.2-.575 1.001-.48 1.101.096L15.5 15.833l2.102-4.796c.2-.479.9-.479 1.1.096l1.4 4.7h4.904l2.701-2.398c2.902-2.781 3.102-7.193.3-9.879"/><path fill="#FFDE00" d="M23.505 17.012h-4.503l-1-3.494L15.7 18.81c-.2.499-1.001.399-1.101-.1L12.499 8.526l-3.002 8.486H6.495l1.601 1.498L15 25l6.904-6.49z"/><path fill="#060606" d="M15.314 16.843 12.692 5.597s0-.093-.105-.093-.105 0-.105.093l-3.986 10.13h-4.09V14.8h3.251l3.776-9.574c.315-.464.735-.65 1.259-.65s.944.371 1.049.836l1.993 8.365 1.573-3.253c.21-.372.63-.65 1.154-.65.525 0 .84.278 1.05.743l1.363 4.183h4.825v.929h-5.56l-1.573-4.926s0-.093-.105-.093h-.105z"/><path fill="#060606" d="M15.21 19.167h-.105c-.525 0-.84-.372-.944-.837l-1.888-7.9-2.623 6.6H0v-.93h8.811l3.672-9.202 2.622 11.154s0 .093.105.093h.105l2.937-6.135 1.363 4.183H30v.93H18.776l-.734-2.324-1.783 3.717c-.21.372-.63.651-1.05.651M27.587 9.222h-1.048v.929h1.048zM25.489 9.222H24.44v.929h1.049zM23.391 9.222h-1.048v.929h1.048zM7.657 9.222H6.608v.929h1.049zM5.559 9.222H4.51v.929h1.048zM3.461 9.222H2.413v.929H3.46z"/></svg>