<svg xmlns="http://www.w3.org/2000/svg" width="30" height="31" fill="none"><path fill="#060606" d="M7.927 28.223c-2.91 0-5.318-2.465-5.318-5.443h1.003a4.42 4.42 0 0 0 4.415 4.416v1.027z"/><path fill="#060606" d="M7.926 30.791C3.512 30.791 0 27.196 0 22.78h1.003c0 3.903 3.11 6.984 6.923 6.984 2.71 0 5.118-1.643 6.322-4.108l.3-.617.502.411c.903.822 2.107 1.233 3.311 1.233 2.007 0 3.311-.72 5.117-2.67 1.505-1.644 4.014-1.952 4.816-1.952.703-1.13 1.004-2.568 1.004-4.211 0-7.087-6.12-15.92-7.425-16.228-.401-.103-1.304 0-2.408.103-1.104.205-2.509.41-4.014.308-.4.616-1.404 2.362-1.505 3.8.703.616 3.412 2.054 6.12 1.335.101-.103.402-.821.503-1.54v-.206l.2-.103c.703-.41 1.505-.308 2.107.309 1.505 1.54 2.609 6.367 1.204 8.627-1.003 1.643-1.304 2.157-1.304 3.287l-.1 1.027-.803-.72c-.903-.82-2.007-1.232-3.612-1.232-1.706 0-3.11.617-4.013 1.85l-.402.513-.401-.514a6.84 6.84 0 0 0-5.519-2.773q-2.106 0-3.913 1.232l-.602-.821c1.305-.925 2.81-1.335 4.415-1.335 2.308 0 4.415.924 5.92 2.67 1.104-1.13 2.609-1.746 4.414-1.746q2.108 0 3.613.924c.2-.924.602-1.54 1.404-2.773 1.104-1.746.2-5.957-1.103-7.395-.201-.308-.402-.41-.703-.308-.1.822-.501 1.849-1.103 2.054-3.613.925-7.024-1.335-7.225-1.438l-.2-.102v-.206c-.1-2.157 1.706-4.827 1.806-4.93l.1-.205h.301c1.605 0 3.01-.206 4.114-.308C20.368.8 21.27.698 21.873.903 23.679 1.417 30 10.558 30 18.158c0 1.951-.401 3.595-1.304 4.93l-.1.205h-.302s-2.91 0-4.414 1.644c-1.806 1.951-3.311 2.773-5.62 2.773-1.203 0-2.407-.411-3.41-1.027-1.405 2.465-4.114 4.108-6.924 4.108"/><path fill="#FFDE00" d="M3.4 4h-1v5.3h1zM3.4 10.3h-1v1h1zM3.4 12.2h-1v1h1zM5.8 2.6h-1v4.8h1zM5.8 8.3h-1v1h1zM5.8 10.3h-1v1h1zM8.3 4h-1v6.3h1zM8.3 11.2h-1v1h1z"/><path fill="#FFDE00" d="M9.4 4.9 5.3 1.3l-4 3.6-.7-.8L5.3 0 10 4.1z"/></svg>