<svg xmlns="http://www.w3.org/2000/svg" width="50" height="50" fill="none"><path fill="#060606" d="M41.1 50H8.9C4 50 0 46 0 41.1V8.9C0 4 4 0 8.9 0h32.3C46 0 50 4 50 8.9v32.3c0 4.8-4 8.8-8.9 8.8M8.9 1.6c-4 0-7.3 3.3-7.3 7.3v32.3c0 4 3.3 7.3 7.3 7.3h32.3c4 0 7.3-3.3 7.3-7.3V8.9c0-4-3.3-7.3-7.3-7.3z"/><path fill="#060606" d="M30.6 46.8H8.9c-3.1 0-5.6-2.5-5.6-5.6V8.9c0-3.1 2.5-5.6 5.6-5.6h9.7v1.6H8.9c-2.2 0-4 1.8-4 4v32.3c0 2.2 1.8 4 4 4h21.8v1.6zM33.9 45.2h-1.6v1.6h1.6zM41.1 46.8h-5.6v-1.6h5.6c2.2 0 4-1.8 4-4V8.9c0-2.2-1.8-4-4-4H30.6V3.2h10.5c3.1 0 5.6 2.5 5.6 5.6v32.3c.1 3.1-2.5 5.7-5.6 5.7"/><path fill="#FFDE00" d="M25 .8c-6.2 0-11.3 5.1-11.3 11.3h22.6C36.3 5.9 31.2.8 25 .8"/><path fill="#060606" d="m27.568 6.036-3.225 5.643 1.389.794 3.225-5.643zM25.8.8h-1.6v2.4h1.6zM20.103 1.936l-1.385.8 1.2 2.078 1.385-.8zM15.596 5.711l-.8 1.386 2.078 1.2.8-1.386zM34.366 5.817l-2.079 1.2.8 1.385 2.078-1.2zM29.957 1.978l-1.2 2.08 1.386.799 1.2-2.079zM19.4 13.7c-.8 0-1.5.4-2 1-.3-.1-.6-.2-.9-.2-.5 0-.9.2-1.2.4-.3-.3-.8-.4-1.2-.4-.7 0-1.3.4-1.7.9-.2-.1-.5-.1-.7-.1-.7 0-1.3.4-1.7.9-.2-.1-.5-.1-.7-.1-1.1 0-2 .9-2 2v4.5c0 2.7.1 5.4.4 8.1l.8 9c.3 2.7 2.6 4.7 5.3 4.7s5-2 5.3-4.8l.3-7.6c.1-1.8.5-3.6 1.2-5.3.9-2.1 1.3-4.2 1.3-6.5v-4c-.1-1.4-1.2-2.5-2.5-2.5m.8 5.7v.8c0 2-.4 4-1.2 5.8-.8 1.9-1.3 3.9-1.3 5.9l-.3 7.5c-.2 1.9-1.8 3.3-3.7 3.3s-3.5-1.4-3.7-3.3l-.8-8.9c-.2-2.6-.4-5.3-.4-7.9v-4.5c0-.2.2-.4.4-.4s.4.2.4.4v1.2h1.6v-2c0-.2.2-.4.4-.4s.4.2.4.4v2h1.6v-2.8c0-.2.2-.4.4-.4s.4.2.4.4v2.8H16v-2.8c0-.2.2-.4.4-.4s.4.2.4.4v2.8h1.6v-3.1999999999999997c0-.4.4-.8.8-.8s.8.4.8.8v3.3zM40.7 16.1c-.3 0-.5.1-.7.1-.4-.6-1-.9-1.7-.9-.3 0-.5.1-.7.1-.4-.6-1-.9-1.7-.9-.5 0-.9.2-1.2.4-.3-.3-.8-.4-1.2-.4-.3 0-.6.1-.9.2-.4-.6-1.2-1-2-1-1.3 0-2.4 1.1-2.4 2.4v4c0 2.2.4 4.4 1.3 6.5.7 1.7 1.1 3.5 1.2 5.3l.3 7.6c.3 2.7 2.6 4.7 5.3 4.7s5-2 5.3-4.7l.8-8.9c.2-2.7.4-5.4.4-8.1V18c-.1-1-1-1.9-2.1-1.9m.4 3.3v3.3c0 2.6-.1 5.3-.4 7.9l-.7 8.9c-.2 1.9-1.8 3.3-3.7 3.3s-3.5-1.4-3.7-3.2l-.3-7.6c-.1-2-.5-4-1.3-5.9s-1.2-3.8-1.2-5.8v-4c0-.4.4-.8.8-.8s.8.4.8.8v3.1999999999999997H33v-2.8c0-.2.2-.4.4-.4s.4.2.4.4v2.8h1.6v-2.8c0-.2.2-.4.4-.4s.4.2.4.4v2.8h1.6v-2c0-.2.2-.4.4-.4s.4.2.4.4v2h1.6v-1.2c0-.2.2-.4.4-.4s.4.2.4.4v1.1z"/></svg>